<svg width="240" height="28" viewBox="0 0 240 28" fill="none" xmlns="http://www.w3.org/2000/svg">
<path d="M1.20656 8.36C1.0199 8.06667 0.846563 7.66667 0.686563 7.16C0.526563 6.65333 0.446563 6.12 0.446563 5.56C0.446563 4.52 0.673229 3.77333 1.12656 3.32C1.60656 2.86667 2.2199 2.64 2.96656 2.64H20.4066C20.5932 2.93333 20.7666 3.33333 20.9266 3.84C21.0866 4.34667 21.1666 4.88 21.1666 5.44C21.1666 6.48 20.9266 7.22667 20.4466 7.68C19.9932 8.13333 19.3932 8.36 18.6466 8.36H14.2066V26.84C13.9132 26.92 13.4466 27 12.8066 27.08C12.1932 27.16 11.5799 27.2 10.9666 27.2C10.3532 27.2 9.80656 27.1467 9.32656 27.04C8.87323 26.96 8.48656 26.8 8.16656 26.56C7.84656 26.32 7.60656 25.9867 7.44656 25.56C7.28656 25.1333 7.20656 24.5733 7.20656 23.88V8.36H1.20656ZM43.2331 26.96C42.9665 27.04 42.5398 27.12 41.9531 27.2C41.3931 27.28 40.8065 27.32 40.1931 27.32C39.6065 27.32 39.0731 27.28 38.5931 27.2C38.1398 27.12 37.7531 26.96 37.4331 26.72C37.1131 26.48 36.8598 26.16 36.6731 25.76C36.5131 25.3333 36.4331 24.7867 36.4331 24.12V15.24C36.4331 14.1467 36.1531 13.3867 35.5931 12.96C35.0598 12.5067 34.3931 12.28 33.5931 12.28C33.0598 12.28 32.5531 12.3467 32.0731 12.48C31.5931 12.6133 31.2065 12.7733 30.9131 12.96V26.96C30.6465 27.04 30.2198 27.12 29.6331 27.2C29.0731 27.28 28.4865 27.32 27.8731 27.32C27.2865 27.32 26.7531 27.28 26.2731 27.2C25.8198 27.12 25.4331 26.96 25.1131 26.72C24.7931 26.48 24.5398 26.16 24.3531 25.76C24.1931 25.3333 24.1131 24.7867 24.1131 24.12V0.92C24.4065 0.866665 24.8331 0.799999 25.3931 0.72C25.9798 0.613333 26.5665 0.559999 27.1531 0.559999C27.7398 0.559999 28.2598 0.599999 28.7131 0.679998C29.1931 0.759998 29.5931 0.919999 29.9131 1.16C30.2331 1.4 30.4731 1.73333 30.6331 2.16C30.8198 2.56 30.9131 3.09333 30.9131 3.76V7.68C31.2598 7.54667 31.7798 7.4 32.4731 7.24C33.1931 7.05333 33.9798 6.96 34.8331 6.96C37.4731 6.96 39.5265 7.62666 40.9931 8.96C42.4865 10.2667 43.2331 12.2267 43.2331 14.84V26.96ZM57.7116 27.64C56.1382 27.64 54.6716 27.4267 53.3116 27C51.9782 26.5467 50.8049 25.88 49.7916 25C48.8049 24.12 48.0182 23.0133 47.4316 21.68C46.8716 20.3467 46.5916 18.7867 46.5916 17C46.5916 15.24 46.8716 13.7333 47.4316 12.48C48.0182 11.2 48.7782 10.16 49.7116 9.36C50.6449 8.53333 51.7116 7.93333 52.9116 7.56C54.1116 7.16 55.3382 6.96 56.5916 6.96C58.0049 6.96 59.2849 7.17333 60.4316 7.6C61.6049 8.02667 62.6049 8.61333 63.4316 9.36C64.2849 10.1067 64.9382 11 65.3916 12.04C65.8716 13.08 66.1116 14.2133 66.1116 15.44C66.1116 16.3467 65.8582 17.04 65.3516 17.52C64.8449 18 64.1382 18.3067 63.2316 18.44L53.3516 19.92C53.6449 20.8 54.2449 21.4667 55.1516 21.92C56.0582 22.3467 57.0982 22.56 58.2716 22.56C59.3649 22.56 60.3916 22.4267 61.3516 22.16C62.3382 21.8667 63.1382 21.5333 63.7516 21.16C64.1782 21.4267 64.5382 21.8 64.8316 22.28C65.1249 22.76 65.2716 23.2667 65.2716 23.8C65.2716 25 64.7116 25.8933 63.5916 26.48C62.7382 26.9333 61.7782 27.24 60.7116 27.4C59.6449 27.56 58.6449 27.64 57.7116 27.64ZM56.5916 11.92C55.9516 11.92 55.3916 12.0267 54.9116 12.24C54.4582 12.4533 54.0849 12.7333 53.7916 13.08C53.4982 13.4 53.2716 13.7733 53.1116 14.2C52.9782 14.6 52.8982 15.0133 52.8716 15.44L59.7116 14.32C59.6316 13.7867 59.3382 13.2533 58.8316 12.72C58.3249 12.1867 57.5782 11.92 56.5916 11.92ZM78.7047 6.96C79.798 6.96 80.8647 7.12 81.9047 7.44C82.9714 7.73333 83.8914 8.18667 84.6647 8.8C85.4647 8.26667 86.358 7.82667 87.3447 7.48C88.358 7.13333 89.5714 6.96 90.9847 6.96C91.998 6.96 92.9847 7.09333 93.9447 7.36C94.9314 7.62667 95.798 8.05333 96.5447 8.64C97.318 9.2 97.9314 9.96 98.3847 10.92C98.838 11.8533 99.0647 13 99.0647 14.36V26.96C98.798 27.04 98.3714 27.12 97.7847 27.2C97.2247 27.28 96.638 27.32 96.0247 27.32C95.438 27.32 94.9047 27.28 94.4247 27.2C93.9714 27.12 93.5847 26.96 93.2647 26.72C92.9447 26.48 92.6914 26.16 92.5047 25.76C92.3447 25.3333 92.2647 24.7867 92.2647 24.12V14.56C92.2647 13.76 92.038 13.1867 91.5847 12.84C91.1314 12.4667 90.518 12.28 89.7447 12.28C89.3714 12.28 88.9714 12.3733 88.5447 12.56C88.118 12.72 87.798 12.8933 87.5847 13.08C87.6114 13.1867 87.6247 13.2933 87.6247 13.4C87.6247 13.48 87.6247 13.56 87.6247 13.64V26.96C87.3314 27.04 86.8914 27.12 86.3047 27.2C85.7447 27.28 85.1714 27.32 84.5847 27.32C83.998 27.32 83.4647 27.28 82.9847 27.2C82.5314 27.12 82.1447 26.96 81.8247 26.72C81.5047 26.48 81.2514 26.16 81.0647 25.76C80.9047 25.3333 80.8247 24.7867 80.8247 24.12V14.56C80.8247 13.76 80.5714 13.1867 80.0647 12.84C79.5847 12.4667 78.998 12.28 78.3047 12.28C77.8247 12.28 77.4114 12.36 77.0647 12.52C76.718 12.6533 76.4247 12.7867 76.1847 12.92V26.96C75.918 27.04 75.4914 27.12 74.9047 27.2C74.3447 27.28 73.758 27.32 73.1447 27.32C72.558 27.32 72.0247 27.28 71.5447 27.2C71.0914 27.12 70.7047 26.96 70.3847 26.72C70.0647 26.48 69.8114 26.16 69.6247 25.76C69.4647 25.3333 69.3847 24.7867 69.3847 24.12V12.04C69.3847 11.32 69.5314 10.7467 69.8247 10.32C70.1447 9.89333 70.5714 9.49333 71.1047 9.12C72.0114 8.48 73.1314 7.96 74.4647 7.56C75.8247 7.16 77.238 6.96 78.7047 6.96ZM113.493 27.64C111.919 27.64 110.453 27.4267 109.093 27C107.759 26.5467 106.586 25.88 105.573 25C104.586 24.12 103.799 23.0133 103.213 21.68C102.653 20.3467 102.373 18.7867 102.373 17C102.373 15.24 102.653 13.7333 103.213 12.48C103.799 11.2 104.559 10.16 105.493 9.36C106.426 8.53333 107.493 7.93333 108.693 7.56C109.893 7.16 111.119 6.96 112.373 6.96C113.786 6.96 115.066 7.17333 116.213 7.6C117.386 8.02667 118.386 8.61333 119.213 9.36C120.066 10.1067 120.719 11 121.173 12.04C121.653 13.08 121.893 14.2133 121.893 15.44C121.893 16.3467 121.639 17.04 121.133 17.52C120.626 18 119.919 18.3067 119.013 18.44L109.133 19.92C109.426 20.8 110.026 21.4667 110.933 21.92C111.839 22.3467 112.879 22.56 114.053 22.56C115.146 22.56 116.173 22.4267 117.133 22.16C118.119 21.8667 118.919 21.5333 119.533 21.16C119.959 21.4267 120.319 21.8 120.613 22.28C120.906 22.76 121.053 23.2667 121.053 23.8C121.053 25 120.493 25.8933 119.373 26.48C118.519 26.9333 117.559 27.24 116.493 27.4C115.426 27.56 114.426 27.64 113.493 27.64ZM112.373 11.92C111.733 11.92 111.173 12.0267 110.693 12.24C110.239 12.4533 109.866 12.7333 109.573 13.08C109.279 13.4 109.053 13.7733 108.893 14.2C108.759 14.6 108.679 15.0133 108.653 15.44L115.493 14.32C115.413 13.7867 115.119 13.2533 114.613 12.72C114.106 12.1867 113.359 11.92 112.373 11.92ZM125.046 19.56C124.859 19.2667 124.686 18.88 124.526 18.4C124.366 17.92 124.286 17.4133 124.286 16.88C124.286 15.8933 124.513 15.1867 124.966 14.76C125.419 14.3067 126.006 14.08 126.726 14.08H135.286C135.446 14.3733 135.606 14.76 135.766 15.24C135.953 15.72 136.046 16.2267 136.046 16.76C136.046 17.7467 135.819 18.4667 135.366 18.92C134.913 19.3467 134.326 19.56 133.606 19.56H125.046ZM153.136 26.2C152.762 26.52 152.176 26.8 151.376 27.04C150.602 27.28 149.749 27.4 148.816 27.4C147.696 27.4 146.736 27.24 145.936 26.92C145.136 26.5733 144.589 26.1067 144.296 25.52C144.002 24.9067 143.642 24.12 143.216 23.16C142.789 22.1733 142.336 21.08 141.856 19.88C141.402 18.68 140.922 17.4133 140.416 16.08C139.936 14.72 139.469 13.3467 139.016 11.96C138.562 10.5733 138.136 9.21333 137.736 7.88C137.336 6.54667 136.989 5.29333 136.696 4.12C137.069 3.74667 137.602 3.41333 138.296 3.12C139.016 2.8 139.776 2.64 140.576 2.64C141.562 2.64 142.362 2.85333 142.976 3.28C143.616 3.68 144.082 4.44 144.376 5.56C145.096 8.17333 145.816 10.68 146.536 13.08C147.282 15.4533 148.056 17.9333 148.856 20.52H149.096C149.816 18.0133 150.549 15.28 151.296 12.32C152.069 9.36 152.802 6.41333 153.496 3.48C153.976 3.24 154.482 3.04 155.016 2.88C155.576 2.72 156.202 2.64 156.896 2.64C157.882 2.64 158.722 2.86667 159.416 3.32C160.109 3.74667 160.456 4.46667 160.456 5.48C160.456 6.06667 160.309 6.92 160.016 8.04C159.749 9.16 159.389 10.4267 158.936 11.84C158.509 13.2267 158.016 14.68 157.456 16.2C156.922 17.72 156.376 19.16 155.816 20.52C155.282 21.8533 154.776 23.04 154.296 24.08C153.816 25.0933 153.429 25.8 153.136 26.2ZM172.399 27.64C170.826 27.64 169.359 27.4267 167.999 27C166.666 26.5467 165.492 25.88 164.479 25C163.492 24.12 162.706 23.0133 162.119 21.68C161.559 20.3467 161.279 18.7867 161.279 17C161.279 15.24 161.559 13.7333 162.119 12.48C162.706 11.2 163.466 10.16 164.399 9.36C165.332 8.53333 166.399 7.93333 167.599 7.56C168.799 7.16 170.026 6.96 171.279 6.96C172.692 6.96 173.972 7.17333 175.119 7.6C176.292 8.02667 177.292 8.61333 178.119 9.36C178.972 10.1067 179.626 11 180.079 12.04C180.559 13.08 180.799 14.2133 180.799 15.44C180.799 16.3467 180.546 17.04 180.039 17.52C179.532 18 178.826 18.3067 177.919 18.44L168.039 19.92C168.332 20.8 168.932 21.4667 169.839 21.92C170.746 22.3467 171.786 22.56 172.959 22.56C174.052 22.56 175.079 22.4267 176.039 22.16C177.026 21.8667 177.826 21.5333 178.439 21.16C178.866 21.4267 179.226 21.8 179.519 22.28C179.812 22.76 179.959 23.2667 179.959 23.8C179.959 25 179.399 25.8933 178.279 26.48C177.426 26.9333 176.466 27.24 175.399 27.4C174.332 27.56 173.332 27.64 172.399 27.64ZM171.279 11.92C170.639 11.92 170.079 12.0267 169.599 12.24C169.146 12.4533 168.772 12.7333 168.479 13.08C168.186 13.4 167.959 13.7733 167.799 14.2C167.666 14.6 167.586 15.0133 167.559 15.44L174.399 14.32C174.319 13.7867 174.026 13.2533 173.519 12.72C173.012 12.1867 172.266 11.92 171.279 11.92ZM190.872 26.96C190.606 27.04 190.179 27.12 189.592 27.2C189.032 27.28 188.446 27.32 187.832 27.32C187.246 27.32 186.712 27.28 186.232 27.2C185.779 27.12 185.392 26.96 185.072 26.72C184.752 26.48 184.499 26.16 184.312 25.76C184.152 25.3333 184.072 24.7867 184.072 24.12V12.12C184.072 11.5067 184.179 10.9867 184.392 10.56C184.632 10.1067 184.966 9.70667 185.392 9.36C185.819 9.01333 186.339 8.70667 186.952 8.44C187.592 8.14667 188.272 7.89333 188.992 7.68C189.712 7.46667 190.459 7.30667 191.232 7.2C192.006 7.06667 192.779 7 193.552 7C194.832 7 195.846 7.25333 196.592 7.76C197.339 8.24 197.712 9.04 197.712 10.16C197.712 10.5333 197.659 10.9067 197.552 11.28C197.446 11.6267 197.312 11.9467 197.152 12.24C196.592 12.24 196.019 12.2667 195.432 12.32C194.846 12.3733 194.272 12.4533 193.712 12.56C193.152 12.6667 192.619 12.7867 192.112 12.92C191.632 13.0267 191.219 13.16 190.872 13.32V26.96ZM216.918 21.2C216.918 23.2267 216.158 24.8133 214.638 25.96C213.118 27.1067 210.878 27.68 207.918 27.68C206.798 27.68 205.758 27.6 204.798 27.44C203.838 27.28 203.011 27.04 202.318 26.72C201.651 26.3733 201.118 25.9467 200.718 25.44C200.344 24.9333 200.158 24.3333 200.158 23.64C200.158 23 200.291 22.4667 200.558 22.04C200.824 21.5867 201.144 21.2133 201.518 20.92C202.291 21.3467 203.171 21.7333 204.158 22.08C205.171 22.4 206.331 22.56 207.638 22.56C208.464 22.56 209.091 22.44 209.518 22.2C209.971 21.96 210.197 21.64 210.197 21.24C210.197 20.8667 210.038 20.5733 209.718 20.36C209.398 20.1467 208.864 19.9733 208.118 19.84L206.918 19.6C204.598 19.1467 202.864 18.44 201.718 17.48C200.598 16.4933 200.038 15.0933 200.038 13.28C200.038 12.2933 200.251 11.4 200.678 10.6C201.104 9.8 201.704 9.13333 202.478 8.6C203.251 8.06667 204.171 7.65333 205.238 7.36C206.331 7.06667 207.531 6.92 208.838 6.92C209.824 6.92 210.744 7 211.598 7.16C212.478 7.29333 213.238 7.50667 213.878 7.8C214.518 8.09333 215.024 8.48 215.398 8.96C215.771 9.41333 215.958 9.96 215.958 10.6C215.958 11.2133 215.838 11.7467 215.598 12.2C215.384 12.6267 215.104 12.9867 214.758 13.28C214.544 13.1467 214.224 13.0133 213.798 12.88C213.371 12.72 212.904 12.5867 212.398 12.48C211.891 12.3467 211.371 12.24 210.838 12.16C210.331 12.08 209.864 12.04 209.438 12.04C208.558 12.04 207.878 12.1467 207.398 12.36C206.918 12.5467 206.678 12.8533 206.678 13.28C206.678 13.5733 206.811 13.8133 207.078 14C207.344 14.1867 207.851 14.36 208.598 14.52L209.838 14.8C212.398 15.3867 214.211 16.2 215.278 17.24C216.371 18.2533 216.918 19.5733 216.918 21.2ZM230.68 27.64C229.107 27.64 227.64 27.4267 226.28 27C224.947 26.5467 223.774 25.88 222.76 25C221.774 24.12 220.987 23.0133 220.4 21.68C219.84 20.3467 219.56 18.7867 219.56 17C219.56 15.24 219.84 13.7333 220.4 12.48C220.987 11.2 221.747 10.16 222.68 9.36C223.614 8.53333 224.68 7.93333 225.88 7.56C227.08 7.16 228.307 6.96 229.56 6.96C230.974 6.96 232.254 7.17333 233.4 7.6C234.574 8.02667 235.574 8.61333 236.4 9.36C237.254 10.1067 237.907 11 238.36 12.04C238.84 13.08 239.08 14.2133 239.08 15.44C239.08 16.3467 238.827 17.04 238.32 17.52C237.814 18 237.107 18.3067 236.2 18.44L226.32 19.92C226.614 20.8 227.214 21.4667 228.12 21.92C229.027 22.3467 230.067 22.56 231.24 22.56C232.334 22.56 233.36 22.4267 234.32 22.16C235.307 21.8667 236.107 21.5333 236.72 21.16C237.147 21.4267 237.507 21.8 237.8 22.28C238.094 22.76 238.24 23.2667 238.24 23.8C238.24 25 237.68 25.8933 236.56 26.48C235.707 26.9333 234.747 27.24 233.68 27.4C232.614 27.56 231.614 27.64 230.68 27.64ZM229.56 11.92C228.92 11.92 228.36 12.0267 227.88 12.24C227.427 12.4533 227.054 12.7333 226.76 13.08C226.467 13.4 226.24 13.7733 226.08 14.2C225.947 14.6 225.867 15.0133 225.84 15.44L232.68 14.32C232.6 13.7867 232.307 13.2533 231.8 12.72C231.294 12.1867 230.547 11.92 229.56 11.92Z" fill="url(#paint0_linear_60_209)" style=""/>
<defs>
<linearGradient id="paint0_linear_60_209" x1="9" y1="15" x2="240" y2="15" gradientUnits="userSpaceOnUse">
<stop stop-color="#FFD700" style="stop-color:#FFD700;stop-color:color(display-p3 1.0000 0.8431 0.0000);stop-opacity:1;"/>
<stop offset="1" stop-color="#FFA500" style="stop-color:#FFA500;stop-color:color(display-p3 1.0000 0.6471 0.0000);stop-opacity:1;"/>
</linearGradient>
</defs>
</svg>
